<svg xmlns="http://www.w3.org/2000/svg" width="700mm" height="598.269" viewBox="0 0 700 158.292">
  <g stroke-width=".495">
    <path d="M82.399 53.869a99.5 99.5 0 0 1 99.5 99.5m-99.5-69.5a69.5 69.5 0 0 1 69.5 69.5m-69.5-39.5a39.5 39.5 0 0 1 39.5 39.5" transform="matrix(1.12073 0 0 1.12749 492.198 -57.728)" stroke="#fff" stroke-width="5.338" fill="none"/>
    <g transform="matrix(2.01448 0 0 2.02662 403.09 -193.017)" fill="#fff" stroke-width=".99">
      <circle r="3.5" cy="152.303" cx="99.854"/>
      <circle r="3.5" cy="152.303" cx="79.854"/>
    </g>
    <path d="M79.999 153.931a17.178 17.715 0 0 1-12.147 5.19 17.178 17.715 0 0 1-12.146-5.19" fill="none" stroke="#fff" stroke-width="2.97" transform="matrix(2.01448 0 0 2.02662 447.411 -167.193)"/>
  </g>
  <g>
    <path d="M65.739 81.726v76.44h-10.92v-34.07H10.92v34.07H0v-76.44h10.92v32.869h43.899v-32.87zm73.764 47.3q0 1.201-.218 3.167H92.33q.983 7.644 6.661 12.34 5.788 4.586 14.305 4.586 10.374 0 16.708-6.989l5.788 6.77q-3.932 4.587-9.828 6.99-5.788 2.402-12.995 2.402-9.173 0-16.271-3.713-7.098-3.822-11.03-10.592-3.821-6.77-3.821-15.288 0-8.409 3.712-15.18 3.823-6.77 10.375-10.482 6.66-3.822 14.96-3.822t14.742 3.822q6.552 3.712 10.156 10.483 3.712 6.77 3.712 15.506zm-28.61-20.966q-7.535 0-12.667 4.586-5.023 4.587-5.897 12.012h37.128q-.874-7.316-6.006-11.903-5.023-4.695-12.558-4.695zM164 110.009q2.73-5.024 8.081-7.644 5.35-2.621 12.995-2.621v10.155q-.874-.109-2.403-.109-8.517 0-13.431 5.133-4.805 5.023-4.805 14.414v28.829h-10.483V100.29H164zm90.126 19.017q0 1.201-.219 3.167h-46.956q.983 7.644 6.661 12.34 5.788 4.586 14.305 4.586 10.374 0 16.708-6.989l5.788 6.77q-3.932 4.587-9.828 6.99-5.788 2.402-12.995 2.402-9.173 0-16.271-3.713-7.098-3.822-11.03-10.592-3.821-6.77-3.821-15.288 0-8.409 3.713-15.18 3.822-6.77 10.374-10.482 6.66-3.822 14.96-3.822t14.742 3.822q6.552 3.712 10.156 10.483 3.713 6.77 3.713 15.506zm-28.611-20.966q-7.535 0-12.667 4.586-5.023 4.587-5.897 12.012h37.128q-.874-7.316-6.006-11.903-5.023-4.695-12.558-4.695zm60.559-26.334h10.92v76.44h-10.92zm98.584 57.33h-40.622l-8.409 19.11H324.38l34.616-76.44h10.811l34.726 76.44h-11.466zm-3.822-8.736l-16.489-37.456-16.49 37.456zm113.23-30.576q10.92 0 17.253 6.333 6.443 6.334 6.443 18.783v33.306H507.28v-32.105q0-8.408-3.931-12.667-3.822-4.259-11.03-4.259-7.971 0-12.667 5.023-4.696 4.914-4.696 14.196v29.812h-10.483v-32.105q0-8.408-3.931-12.667-3.822-4.259-11.03-4.259-7.97 0-12.666 5.023-4.696 4.914-4.696 14.196v29.812h-10.483V100.29h10.046v8.627q3.167-4.478 8.3-6.77 5.132-2.403 11.684-2.403 6.77 0 12.012 2.73 5.241 2.73 8.08 7.971 3.277-5.023 9.064-7.862 5.897-2.84 13.214-2.84z" fill="#fff"/>
  </g>
</svg>
